<svg xmlns="http://www.w3.org/2000/svg" width="11" height="11" viewBox="0 0 11 11">
    <g fill="none" fill-rule="evenodd">
        <g fill="#186EB5" fill-rule="nonzero">
            <g>
                <g>
                    <g>
                        <path d="M3.978 6.058c0-.137-.114-.249-.255-.249h-.89c-.14 0-.255.112-.255.25v.869c0 .138.114.249.255.249h.89c.14 0 .255-.111.255-.25v-.869zM6.201 6.058c0-.137-.114-.249-.254-.249h-.89c-.14 0-.255.112-.255.25v.869c0 .138.114.249.255.249h.89c.14 0 .254-.111.254-.25v-.869zM8.425 6.058c0-.137-.114-.249-.255-.249h-.89c-.14 0-.254.112-.254.25v.869c0 .138.114.249.255.249h.89c.14 0 .254-.111.254-.25v-.869zM3.978 8.232c0-.138-.114-.25-.255-.25h-.89c-.14 0-.255.112-.255.25v.87c0 .137.114.249.255.249h.89c.14 0 .255-.112.255-.25v-.869zM6.201 8.232c0-.138-.114-.25-.254-.25h-.89c-.14 0-.255.112-.255.25v.87c0 .137.114.249.255.249h.89c.14 0 .254-.112.254-.25v-.869zM8.425 8.232c0-.138-.114-.25-.254-.25h-.89c-.141 0-.255.112-.255.25v.87c0 .137.114.249.255.249h.89c.14 0 .254-.112.254-.25v-.869z" transform="translate(-336 -273) translate(120 263) translate(107) translate(109 10)"/>
                        <path d="M10.016 1.223V2.55c0 .6-.498 1.084-1.112 1.084h-.702c-.614 0-1.119-.484-1.119-1.084V1.218H3.92V2.55c0 .6-.505 1.084-1.119 1.084H2.1c-.615 0-1.113-.484-1.113-1.084V1.223c-.537.016-.978.45-.978.983v7.785c0 .543.451.99 1.007.99h8.971c.555 0 1.007-.447 1.007-.99V2.206c0-.533-.441-.967-.978-.983zM9.69 9.506c0 .235-.194.426-.435.426H1.73c-.24 0-.435-.191-.435-.426V5.485c0-.235.195-.426.435-.426h7.526c.24 0 .435.191.435.426v4.021z" transform="translate(-336 -273) translate(120 263) translate(107) translate(109 10)"/>
                        <path d="M2.097 2.923h.694c.21 0 .382-.167.382-.373V.373C3.173.167 3.002 0 2.79 0h-.694c-.21 0-.381.167-.381.373V2.55c0 .206.17.373.381.373zM8.193 2.923h.694c.21 0 .382-.167.382-.373V.373C9.269.167 9.098 0 8.887 0h-.694c-.21 0-.381.167-.381.373V2.55c0 .206.17.373.381.373z" transform="translate(-336 -273) translate(120 263) translate(107) translate(109 10)"/>
                    </g>
                </g>
            </g>
        </g>
    </g>
</svg>
